<mxfile host="app.diagrams.net" agent="Mozilla/5.0 (Macintosh; Intel Mac OS X 10_15_7) AppleWebKit/537.36 (KHTML, like Gecko) Chrome/134.0.0.0 Safari/537.36" version="26.1.0">
  <diagram name="Page-1" id="g2ThWMQIsWtiZmbWz--a">
    <mxGraphModel dx="1224" dy="814" grid="1" gridSize="10" guides="1" tooltips="1" connect="1" arrows="1" fold="1" page="1" pageScale="1" pageWidth="850" pageHeight="1100" math="0" shadow="0">
      <root>
        <mxCell id="0" />
        <mxCell id="1" parent="0" />
        <mxCell id="-WwBJoPwvWgI_VnnbhiP-7" style="edgeStyle=orthogonalEdgeStyle;rounded=1;orthogonalLoop=1;jettySize=auto;html=1;entryX=0;entryY=0.5;entryDx=0;entryDy=0;curved=0;" edge="1" parent="1" source="-WwBJoPwvWgI_VnnbhiP-1" target="-WwBJoPwvWgI_VnnbhiP-2">
          <mxGeometry relative="1" as="geometry" />
        </mxCell>
        <mxCell id="-WwBJoPwvWgI_VnnbhiP-10" style="edgeStyle=orthogonalEdgeStyle;rounded=1;orthogonalLoop=1;jettySize=auto;html=1;entryX=0;entryY=0.5;entryDx=0;entryDy=0;curved=0;" edge="1" parent="1" source="-WwBJoPwvWgI_VnnbhiP-1" target="-WwBJoPwvWgI_VnnbhiP-6">
          <mxGeometry relative="1" as="geometry" />
        </mxCell>
        <mxCell id="-WwBJoPwvWgI_VnnbhiP-11" style="edgeStyle=orthogonalEdgeStyle;rounded=1;orthogonalLoop=1;jettySize=auto;html=1;entryX=0;entryY=0.5;entryDx=0;entryDy=0;curved=0;" edge="1" parent="1" source="-WwBJoPwvWgI_VnnbhiP-1" target="-WwBJoPwvWgI_VnnbhiP-4">
          <mxGeometry relative="1" as="geometry" />
        </mxCell>
        <mxCell id="-WwBJoPwvWgI_VnnbhiP-16" style="edgeStyle=orthogonalEdgeStyle;rounded=1;orthogonalLoop=1;jettySize=auto;html=1;entryX=0;entryY=0.5;entryDx=0;entryDy=0;curved=0;" edge="1" parent="1" source="-WwBJoPwvWgI_VnnbhiP-1" target="-WwBJoPwvWgI_VnnbhiP-3">
          <mxGeometry relative="1" as="geometry" />
        </mxCell>
        <mxCell id="-WwBJoPwvWgI_VnnbhiP-17" style="edgeStyle=orthogonalEdgeStyle;rounded=1;orthogonalLoop=1;jettySize=auto;html=1;entryX=0;entryY=0.5;entryDx=0;entryDy=0;curved=0;" edge="1" parent="1" source="-WwBJoPwvWgI_VnnbhiP-1" target="-WwBJoPwvWgI_VnnbhiP-5">
          <mxGeometry relative="1" as="geometry" />
        </mxCell>
        <mxCell id="-WwBJoPwvWgI_VnnbhiP-1" value="Student" style="sketch=0;outlineConnect=0;fontColor=#232F3E;gradientColor=none;fillColor=#232F3D;strokeColor=none;dashed=0;verticalLabelPosition=bottom;verticalAlign=top;align=center;html=1;fontSize=12;fontStyle=0;aspect=fixed;pointerEvents=1;shape=mxgraph.aws4.user;" vertex="1" parent="1">
          <mxGeometry x="80" y="31" width="78" height="78" as="geometry" />
        </mxCell>
        <mxCell id="-WwBJoPwvWgI_VnnbhiP-2" value="Lang Portal" style="rounded=1;whiteSpace=wrap;html=1;" vertex="1" parent="1">
          <mxGeometry x="280" y="40" width="120" height="60" as="geometry" />
        </mxCell>
        <mxCell id="-WwBJoPwvWgI_VnnbhiP-15" style="edgeStyle=orthogonalEdgeStyle;rounded=1;orthogonalLoop=1;jettySize=auto;html=1;entryX=1;entryY=0.5;entryDx=0;entryDy=0;curved=0;" edge="1" parent="1" source="-WwBJoPwvWgI_VnnbhiP-3" target="-WwBJoPwvWgI_VnnbhiP-2">
          <mxGeometry relative="1" as="geometry">
            <Array as="points">
              <mxPoint x="440" y="150" />
              <mxPoint x="440" y="70" />
            </Array>
          </mxGeometry>
        </mxCell>
        <mxCell id="-WwBJoPwvWgI_VnnbhiP-3" value="Song Vocab" style="rounded=1;whiteSpace=wrap;html=1;" vertex="1" parent="1">
          <mxGeometry x="280" y="120" width="120" height="60" as="geometry" />
        </mxCell>
        <mxCell id="-WwBJoPwvWgI_VnnbhiP-4" value="Haiku Generator" style="rounded=1;whiteSpace=wrap;html=1;" vertex="1" parent="1">
          <mxGeometry x="280" y="360" width="120" height="60" as="geometry" />
        </mxCell>
        <mxCell id="-WwBJoPwvWgI_VnnbhiP-13" style="edgeStyle=orthogonalEdgeStyle;rounded=1;orthogonalLoop=1;jettySize=auto;html=1;entryX=1;entryY=0.5;entryDx=0;entryDy=0;curved=0;" edge="1" parent="1" source="-WwBJoPwvWgI_VnnbhiP-5" target="-WwBJoPwvWgI_VnnbhiP-2">
          <mxGeometry relative="1" as="geometry">
            <Array as="points">
              <mxPoint x="440" y="228" />
              <mxPoint x="440" y="70" />
            </Array>
          </mxGeometry>
        </mxCell>
        <mxCell id="-WwBJoPwvWgI_VnnbhiP-5" value="Vocab Generator" style="rounded=1;whiteSpace=wrap;html=1;" vertex="1" parent="1">
          <mxGeometry x="280" y="198" width="120" height="60" as="geometry" />
        </mxCell>
        <mxCell id="-WwBJoPwvWgI_VnnbhiP-12" style="edgeStyle=orthogonalEdgeStyle;rounded=1;orthogonalLoop=1;jettySize=auto;html=1;entryX=1;entryY=0.5;entryDx=0;entryDy=0;curved=0;" edge="1" parent="1" source="-WwBJoPwvWgI_VnnbhiP-6" target="-WwBJoPwvWgI_VnnbhiP-2">
          <mxGeometry relative="1" as="geometry">
            <Array as="points">
              <mxPoint x="440" y="310" />
              <mxPoint x="440" y="70" />
            </Array>
          </mxGeometry>
        </mxCell>
        <mxCell id="-WwBJoPwvWgI_VnnbhiP-6" value="Writing Practice" style="rounded=1;whiteSpace=wrap;html=1;" vertex="1" parent="1">
          <mxGeometry x="280" y="280" width="120" height="60" as="geometry" />
        </mxCell>
      </root>
    </mxGraphModel>
  </diagram>
</mxfile>
